<?xml version="1.0" encoding="utf-8"?>
<!-- Generator: Adobe Illustrator 19.0.0, SVG Export Plug-In . SVG Version: 6.00 Build 0)  -->
<svg version="1.1" id="Layer_1" xmlns="http://www.w3.org/2000/svg" xmlns:xlink="http://www.w3.org/1999/xlink" x="0px" y="0px"
	 viewBox="0 0 80 80" style="enable-background:new 0 0 80 80;" xml:space="preserve">
<style type="text/css">
	.st0{fill:url(#SVGID_1_);}
	.st1{fill:#EFEFEF;}
	.st2{fill:#CCD0D2;}
	.st3{fill:#BF392B;}
	.st4{fill:#E2574C;}
	.st5{fill:#C64D41;}
	.st6{fill:#E5685E;}
	.st7{fill:#AD3427;}
	.st8{fill:#D7D7D7;}
</style>
<g>
	<linearGradient id="SVGID_1_" gradientUnits="userSpaceOnUse" x1="2.699" y1="40" x2="77.301" y2="40">
		<stop  offset="0" style="stop-color:#00BCD4"/>
		<stop  offset="1" style="stop-color:#49CDD0"/>
	</linearGradient>
	<path class="st0" d="M40,2.7c20.6,0,37.3,16.7,37.3,37.3c0,20.6-16.7,37.3-37.3,37.3C19.4,77.3,2.7,60.6,2.7,40
		C2.7,19.4,19.4,2.7,40,2.7L40,2.7z M40,2.7"/>
	<path class="st1" d="M40,8.7c17.3,0,31.3,14,31.3,31.3c0,17.3-14,31.3-31.3,31.3c-17.3,0-31.3-14-31.3-31.3
		C8.7,22.7,22.7,8.7,40,8.7L40,8.7z M40,8.7"/>
	<path class="st2" d="M40,25.8c-7.8,0-14.2,6.3-14.2,14.2c0,7.8,6.3,14.2,14.2,14.2c7.8,0,14.2-6.3,14.2-14.2
		C54.2,32.2,47.8,25.8,40,25.8L40,25.8z M40,52.7c-7,0-12.7-5.7-12.7-12.7S33,27.3,40,27.3S52.7,33,52.7,40S47,52.7,40,52.7L40,52.7
		z M40,52.7"/>
	<path class="st3" d="M57.1,22.9C58.2,24,45.1,43,44,44c-1.1,1.1-20,14.2-21.1,13C21.8,56,34.9,37,36,36
		C37,34.9,55.9,21.8,57.1,22.9L57.1,22.9z M57.1,22.9"/>
	<path class="st2" d="M40,15.4c-0.8,0-1.5,0.7-1.5,1.5c0,0.8,0.7,1.5,1.5,1.5c0.8,0,1.5-0.7,1.5-1.5C41.5,16,40.8,15.4,40,15.4
		L40,15.4z M40,61.6c-0.8,0-1.5,0.7-1.5,1.5c0,0.8,0.7,1.5,1.5,1.5c0.8,0,1.5-0.7,1.5-1.5C41.5,62.3,40.8,61.6,40,61.6L40,61.6z
		 M63.1,38.5c-0.8,0-1.5,0.7-1.5,1.5c0,0.8,0.7,1.5,1.5,1.5c0.8,0,1.5-0.7,1.5-1.5C64.6,39.2,63.9,38.5,63.1,38.5L63.1,38.5z
		 M16.9,38.5c-0.8,0-1.5,0.7-1.5,1.5c0,0.8,0.7,1.5,1.5,1.5c0.8,0,1.5-0.7,1.5-1.5C18.4,39.2,17.7,38.5,16.9,38.5L16.9,38.5z
		 M55.3,55.3c-0.6,0.6-0.6,1.5,0,2.1c0.6,0.6,1.5,0.6,2.1,0c0.6-0.6,0.6-1.5,0-2.1C56.8,54.7,55.9,54.7,55.3,55.3L55.3,55.3z
		 M22.6,22.6c-0.6,0.6-0.6,1.5,0,2.1c0.6,0.6,1.5,0.6,2.1,0c0.6-0.6,0.6-1.5,0-2.1C24.1,22,23.2,22,22.6,22.6L22.6,22.6z M22.6,22.6
		"/>
	<path class="st4" d="M44.3,43.7c2.1-2.6,13.8-19.8,12.8-20.8C56,21.8,38,34.3,36.1,35.9L44.3,43.7z M44.3,43.7"/>
	<path class="st5" d="M36,36c-1,1-13.9,19.6-13.1,21.1L57,22.9C55.5,22.1,37,34.9,36,36L36,36z M36,36"/>
	<path class="st6" d="M36.1,35.9l4.1,3.9L57,22.9C55.5,22.1,37.9,34.3,36.1,35.9L36.1,35.9z M36.1,35.9"/>
	<path class="st1" d="M40,37.8c1.2,0,2.2,1,2.2,2.2c0,1.2-1,2.2-2.2,2.2c-1.2,0-2.2-1-2.2-2.2C37.8,38.8,38.8,37.8,40,37.8L40,37.8z
		 M40,37.8"/>
	<path class="st7" d="M40,42.2c-1.2,0-2.2-1-2.2-2.2c0-0.4,0.1-0.8,0.3-1.2c-0.6,0.4-1.1,1.1-1.1,1.9c0,1.2,1,2.2,2.2,2.2
		c0.8,0,1.5-0.4,1.9-1.1C40.8,42.1,40.4,42.2,40,42.2L40,42.2z M40,42.2"/>
	<path class="st8" d="M40,8.7c-9.2,0-17.5,4-23.2,10.3c5.6-5,12.9-8.1,21-8.1c17.3,0,31.3,14,31.3,31.3c0,8.1-3.1,15.4-8.1,21
		c6.3-5.7,10.3-14,10.3-23.2C71.3,22.7,57.3,8.7,40,8.7L40,8.7z M40,8.7"/>
</g>
</svg>
